<?xml version="1.0" encoding="iso-8859-1"?><!DOCTYPE svg PUBLIC "-//W3C//DTD SVG 1.1//EN"
        "http://www.w3.org/Graphics/SVG/1.1/DTD/svg11.dtd">
<svg xmlns="http://www.w3.org/2000/svg" xmlns:xlink="http://www.w3.org/1999/xlink">
    <symbol viewBox="0 0 487.622 487.622" id="next" xmlns="http://www.w3.org/2000/svg">
        <circle cx="243.811" cy="243.811" r="243.811"/>
        <path d="M474.493 322.913L266.177 119.529l47.899 112.655-142.125 11.627-73.902 22.922 214.685 210.992c75.804-22.302 136.259-80.435 161.759-154.812z"
              fill="#c06046"/>
        <path fill="var(--color-change)"
              d="M389.573 243.8L266.177 119.529l-32.431 32.431 69.471 68.908H98.049v45.865h205.19l-69.493 68.929 32.431 32.431z"/>
    </symbol>
    <symbol viewBox="0 0 124.512 124.512" id="play-arrow" xmlns="http://www.w3.org/2000/svg">
        <path d="M113.956 57.006l-97.4-56.2c-4-2.3-9 .6-9 5.2v112.5c0 4.6 5 7.5 9 5.2l97.4-56.2c4-2.401 4-8.2 0-10.5z"/>
    </symbol>
    <symbol viewBox="0 0 129 129" id="right-arrow" xmlns="http://www.w3.org/2000/svg">
        <path d="M40.4 121.3c-.8.8-1.8 1.2-2.9 1.2s-2.1-.4-2.9-1.2c-1.6-1.6-1.6-4.2 0-5.8l51-51-51-51c-1.6-1.6-1.6-4.2 0-5.8 1.6-1.6 4.2-1.6 5.8 0l53.9 53.9c1.6 1.6 1.6 4.2 0 5.8l-53.9 53.9z"/>
    </symbol>
    <symbol viewBox="0 0 112.197 112.197" id="twitter" xmlns="http://www.w3.org/2000/svg">
        <circle cx="56.099" cy="56.098" r="56.098" fill="#55acee"/>
        <path d="M90.461 40.316a26.753 26.753 0 0 1-7.702 2.109 13.445 13.445 0 0 0 5.897-7.417 26.843 26.843 0 0 1-8.515 3.253 13.396 13.396 0 0 0-9.79-4.233c-7.404 0-13.409 6.005-13.409 13.409 0 1.051.119 2.074.349 3.056-11.144-.559-21.025-5.897-27.639-14.012a13.351 13.351 0 0 0-1.816 6.742c0 4.651 2.369 8.757 5.965 11.161a13.314 13.314 0 0 1-6.073-1.679l-.001.17c0 6.497 4.624 11.916 10.757 13.147a13.362 13.362 0 0 1-3.532.471c-.866 0-1.705-.083-2.523-.239 1.706 5.326 6.657 9.203 12.526 9.312a26.904 26.904 0 0 1-16.655 5.74c-1.08 0-2.15-.063-3.197-.188a37.929 37.929 0 0 0 20.553 6.025c24.664 0 38.152-20.432 38.152-38.153 0-.581-.013-1.16-.039-1.734a27.192 27.192 0 0 0 6.692-6.94z"
              fill="#f1f2f2"/>
    </symbol>
</svg>